<?xml version="1.0" encoding="UTF-8"?>
<svg id="Logo" xmlns="http://www.w3.org/2000/svg" viewBox="0 0 432.7 69.22">
  <defs>
    <style>
      .cls-1 {
        fill: #69b645;
      }

      .cls-1, .cls-2 {
        fill-rule: evenodd;
        stroke-width: 0px;
      }

      .cls-2 {
        fill: #fff;
      }
    </style>
  </defs>
  <g id="_" data-name="®">
    <path class="cls-2" d="M418.05,12.48c-4.19,0-7.53,3.25-7.53,7.31s3.34,7.4,7.53,7.4,7.49-3.25,7.49-7.4-3.25-7.31-7.49-7.31ZM418.1,25.63c-3.3,0-5.71-2.59-5.71-5.84s2.41-5.84,5.66-5.84,5.62,2.63,5.62,5.88-2.36,5.8-5.57,5.8ZM419.74,20.02v-.09c.89-.27,1.52-.89,1.52-1.69,0-.71-.31-1.29-.71-1.6-.54-.31-1.16-.53-2.54-.53-1.2,0-2.14.09-2.81.22v7.31h1.69v-2.94h.8c.94,0,1.38.36,1.52,1.16.22.85.36,1.52.58,1.78h1.83c-.18-.27-.31-.71-.53-1.83-.22-.98-.62-1.52-1.34-1.78ZM417.74,19.48h-.8v-2.1c.18-.04.49-.09.94-.09,1.07,0,1.56.45,1.56,1.11,0,.76-.76,1.07-1.69,1.07Z"/>
  </g>
  <g id="trending">
    <path class="cls-2" d="M168.61,55.23h7.75v14h3.1v-14h7.79v-2.44h-18.65v2.44ZM210.17,62.79c2.3,0,3.45-1.05,3.45-3.14v-3.68c0-2.12-1.15-3.18-3.45-3.18h-13.22v16.44h3.1v-6.44h4.5l6.55,6.44h4.15l-7.25-6.44h2.17ZM200.05,60.5v-5.31h8.76c1.16,0,1.74.56,1.74,1.67v1.98c0,.49-.06.85-.19,1.09-.21.39-.72.58-1.55.58h-8.76ZM228.86,61.89h8.1v-2.44h-8.1v-4.23h13.45v-2.44h-16.56v16.44h16.71v-2.44h-13.61v-4.89ZM269.46,62.71c0,1.06.09,2.08.27,3.06-.57-.83-1.23-1.58-1.98-2.25l-12.06-10.74h-2.37v16.44h2.87v-10.2c0-1.01-.08-1.99-.23-2.95.47.78,1.11,1.53,1.94,2.25l12.29,10.9h2.13v-16.44h-2.87v9.93ZM302.3,54.06c-1.34-.85-3.54-1.28-6.59-1.28h-9.46v16.44h9.46c6.77,0,10.16-2.75,10.16-8.26,0-3.1-1.19-5.4-3.57-6.9ZM301,65.46c-1.18.85-3.06,1.28-5.64,1.28h-6.01v-11.52h6.01c2.56,0,4.41.41,5.54,1.24,1.24.88,1.86,2.37,1.86,4.46s-.59,3.68-1.76,4.54ZM318.19,69.22h3.1v-16.44h-3.1v16.44ZM349.99,62.71c0,1.06.09,2.08.27,3.06-.57-.83-1.23-1.58-1.98-2.25l-12.06-10.74h-2.37v16.44h2.87v-10.2c0-1.01-.08-1.99-.23-2.95.47.78,1.11,1.53,1.94,2.25l12.29,10.9h2.13v-16.44h-2.87v9.93ZM384.3,56.93v-.47c0-1.4-.3-2.36-.91-2.89-.61-.53-1.65-.8-3.12-.8h-11.13c-1.55,0-2.61.28-3.18.83-.57.56-.85,1.58-.85,3.08v8.65c0,1.5.28,2.52.83,3.06.56.54,1.62.81,3.2.81h11.13c1.55,0,2.61-.27,3.18-.81.57-.54.85-1.56.85-3.06v-5.31h-9.81v2.25h6.71v4.46h-12.99v-11.52h12.99v2.25l3.1-.54Z"/>
  </g>
  <g id="visual">
    <path class="cls-2" d="M11.18,66l-7.37-13.22H.48l9.46,16.44h2.37l9-16.44h-3.06l-7.06,13.22ZM30.92,69.22h3.1v-16.44h-3.1v16.44ZM60.11,59.49h-10.55v-4.27h11.52v2.17l2.83-.62v-.39c0-1.37-.3-2.31-.91-2.83-.61-.52-1.65-.78-3.12-.78h-9.15c-1.55,0-2.6.27-3.16.81-.56.54-.83,1.58-.83,3.1v1.55c0,1.5.28,2.52.83,3.06.56.54,1.61.81,3.16.81h10.59v4.61h-12.41v-2.44l-2.83.58v.47c0,1.5.28,2.52.83,3.06.56.54,1.62.81,3.2.81h10c1.55,0,2.6-.27,3.16-.81.56-.54.83-1.56.83-3.06v-1.98c0-1.5-.28-2.52-.83-3.06-.56-.54-1.61-.81-3.16-.81ZM91.44,66.74h-12.02v-13.96h-3.1v12.56c0,1.5.28,2.52.85,3.06.57.54,1.63.81,3.18.81h10.2c1.58,0,2.64-.27,3.2-.81.56-.54.83-1.56.83-3.06v-12.56h-3.14v13.96ZM114.05,52.78l-9.5,16.44h3.1l2.09-3.84h11.36l2.13,3.84h3.37l-9.73-16.44h-2.83ZM111.06,63.02l4.34-7.83,4.38,7.83h-8.72ZM139.68,66.78v-14h-3.1v16.44h15.9v-2.44h-12.8Z"/>
  </g>
  <g id="oPtix">
    <path class="cls-2" d="M215.38,12.65h-26.55c-5.96,0-10.79,4.84-10.79,10.79v12.65c0,5.96,4.84,10.79,10.79,10.79h26.55c5.96,0,10.79-4.84,10.79-10.79v-12.65c0-5.96-4.84-10.79-10.79-10.79ZM217.24,37.96h-30.27v-16.38h30.27v16.38ZM267.49,12.65h-37.34v34.24h8.93v-8.93h28.41c5.96,0,10.79-4.84,10.79-10.79v-3.72c0-5.96-4.84-10.79-10.79-10.79ZM269.35,29.03h-30.27v-7.44h30.27v7.44ZM290.2,0h-8.93v36.1c0,5.96,4.84,10.79,10.79,10.79h37.34v-8.93h-39.2v-16.38h39.2v-8.93h-39.2V0ZM333.37,8.93h8.93V0h-8.93v8.93ZM333.37,46.9h8.93V12.65h-8.93v34.24ZM382.44,29.65l21.84-17h-14.7l-12.72,9.99c-1.36,1.05-2.48,2.48-3.1,4.16-.62-1.67-1.74-3.1-3.04-4.16l-12.72-9.99h-14.7l21.84,17-22.15,17.25h14.7l12.96-10.24c1.37-1.05,2.48-2.48,3.1-4.22.62,1.74,1.8,3.16,3.16,4.22l41.08,31.88h14.7l-50.26-38.89Z"/>
  </g>
  <g id="sum">
    <path class="cls-1" d="M38.96,25.31H8.93v-3.72h39.2v-8.93H10.79C4.78,12.65,0,17.49,0,23.45s4.78,10.79,10.79,10.79h30.02v3.72H1.61v8.93h37.34c5.96,0,10.79-4.84,10.79-10.79s-4.84-10.79-10.79-10.79ZM91.32,37.96h-30.27V12.65h-8.93v23.45c0,5.96,4.84,10.79,10.79,10.79h37.34V12.65h-8.93v25.31ZM162.91,12.65h-58.68v34.24h8.93v-25.31h21.34v25.31h8.93v-25.31h21.34v25.31h8.93v-23.45c0-5.96-4.84-10.79-10.79-10.79Z"/>
  </g>
</svg>